<svg width="25" height="24" viewBox="0 0 25 24" fill="none" xmlns="http://www.w3.org/2000/svg">
<path d="M4 18.75C3.59 18.75 3.25 18.41 3.25 18V7C3.25 2.59 4.59 1.25 9 1.25H16C20.41 1.25 21.75 2.59 21.75 7V17C21.75 17.16 21.75 17.31 21.74 17.47C21.71 17.88 21.34 18.2 20.94 18.17C20.53 18.14 20.21 17.78 20.24 17.37C20.25 17.25 20.25 17.12 20.25 17V7C20.25 3.43 19.58 2.75 16 2.75H9C5.42 2.75 4.75 3.43 4.75 7V18C4.75 18.41 4.41 18.75 4 18.75Z" fill="#727272"/>
<path d="M17.5 22.75H7.5C5.16 22.75 3.25 20.84 3.25 18.5V17.85C3.25 15.86 4.87 14.25 6.85 14.25H21C21.41 14.25 21.75 14.59 21.75 15V18.5C21.75 20.84 19.84 22.75 17.5 22.75ZM6.85 15.75C5.69 15.75 4.75 16.69 4.75 17.85V18.5C4.75 20.02 5.98 21.25 7.5 21.25H17.5C19.02 21.25 20.25 20.02 20.25 18.5V15.75H6.85Z" fill="#727272"/>
<path d="M16.5 7.75H8.5C8.09 7.75 7.75 7.41 7.75 7C7.75 6.59 8.09 6.25 8.5 6.25H16.5C16.91 6.25 17.25 6.59 17.25 7C17.25 7.41 16.91 7.75 16.5 7.75Z" fill="#727272"/>
<path d="M13.5 11.25H8.5C8.09 11.25 7.75 10.91 7.75 10.5C7.75 10.09 8.09 9.75 8.5 9.75H13.5C13.91 9.75 14.25 10.09 14.25 10.5C14.25 10.91 13.91 11.25 13.5 11.25Z" fill="#727272"/>
</svg>
