<svg width="25" height="24" viewBox="0 0 25 24" fill="none" xmlns="http://www.w3.org/2000/svg">
<path d="M12.5 22.75C6.57 22.75 1.75 17.93 1.75 12C1.75 6.07 6.57 1.25 12.5 1.25C18.43 1.25 23.25 6.07 23.25 12C23.25 17.93 18.43 22.75 12.5 22.75ZM12.5 2.75C7.4 2.75 3.25 6.9 3.25 12C3.25 17.1 7.4 21.25 12.5 21.25C17.6 21.25 21.75 17.1 21.75 12C21.75 6.9 17.6 2.75 12.5 2.75Z" fill="#727272"/>
<path d="M15.5002 16C14.9402 16 14.4902 15.55 14.4902 15C14.4902 14.45 14.9402 14 15.4902 14C16.0402 14 16.4902 14.45 16.4902 15C16.4902 15.55 16.0502 16 15.5002 16Z" fill="#727272"/>
<path d="M9.51001 10C8.95001 10 8.5 9.55 8.5 9C8.5 8.45 8.95 8 9.5 8C10.05 8 10.5 8.45 10.5 9C10.5 9.55 10.06 10 9.51001 10Z" fill="#727272"/>
<path d="M9.49997 15.75C9.30997 15.75 9.11994 15.68 8.96994 15.53C8.67994 15.24 8.67994 14.7599 8.96994 14.4699L14.9699 8.46994C15.2599 8.17994 15.74 8.17994 16.03 8.46994C16.32 8.75994 16.32 9.24 16.03 9.53L10.03 15.53C9.88 15.68 9.68997 15.75 9.49997 15.75Z" fill="#727272"/>
</svg>
