<svg width="25" height="25" viewBox="0 0 25 25" fill="none" xmlns="http://www.w3.org/2000/svg">
<path d="M6.07 23.2C3.73 23.2 1.75 21.22 1.75 18.88V12.72C1.7 9.8 2.78 7.05 4.8 4.99C6.82 2.94 9.53 1.8 12.45 1.8C18.41 1.8 23.25 6.65 23.25 12.6V18.76C23.25 21.14 21.31 23.08 18.93 23.08C16.59 23.08 14.61 21.1 14.61 18.76V15.95C14.61 14.5 15.75 13.36 17.2 13.36C18.65 13.36 19.79 14.5 19.79 15.95V18.98C19.79 19.39 19.45 19.73 19.04 19.73C18.63 19.73 18.29 19.39 18.29 18.98V15.95C18.29 15.27 17.74 14.86 17.2 14.86C16.52 14.86 16.11 15.41 16.11 15.95V18.76C16.11 20.29 17.4 21.58 18.93 21.58C20.46 21.58 21.75 20.29 21.75 18.76V12.6C21.75 7.47 17.58 3.3 12.45 3.3C9.94 3.3 7.61 4.27 5.87 6.04C4.13 7.81 3.2 10.18 3.25 12.7V18.88C3.25 20.41 4.54 21.7 6.07 21.7C7.6 21.7 8.89 20.41 8.89 18.88V16.07C8.89 15.39 8.34 14.98 7.8 14.98C7.12 14.98 6.71 15.53 6.71 16.07V18.99C6.71 19.4 6.37 19.74 5.96 19.74C5.55 19.74 5.21 19.4 5.21 18.99V16.07C5.21 14.62 6.35 13.48 7.8 13.48C9.25 13.48 10.39 14.62 10.39 16.07V18.88C10.39 21.22 8.41 23.2 6.07 23.2Z" fill="#727272"/>
</svg>
