<svg width="25" height="24" viewBox="0 0 25 24" fill="none" xmlns="http://www.w3.org/2000/svg">
<path d="M12.5 16.75C12.1 16.75 11.7 16.72 11.32 16.65C9.2 16.34 7.27 15.12 6.05 13.31C5.2 12.03 4.75 10.54 4.75 9C4.75 4.73 8.23 1.25 12.5 1.25C16.77 1.25 20.25 4.73 20.25 9C20.25 10.54 19.8 12.03 18.95 13.31C17.72 15.13 15.79 16.34 13.65 16.66C13.3 16.72 12.9 16.75 12.5 16.75ZM12.5 2.75C9.05 2.75 6.25 5.55 6.25 9C6.25 10.25 6.61 11.45 7.29 12.47C8.28 13.93 9.83 14.91 11.55 15.16C12.19 15.27 12.82 15.27 13.41 15.16C15.16 14.91 16.71 13.92 17.7 12.46C18.38 11.44 18.74 10.24 18.74 8.98999C18.75 5.54999 15.95 2.75 12.5 2.75Z" fill="white"/>
<path d="M6.96982 22.59C6.82982 22.59 6.69982 22.57 6.55982 22.54C5.90982 22.39 5.40982 21.89 5.25982 21.24L4.90982 19.77C4.88982 19.68 4.81982 19.61 4.71982 19.58L3.06982 19.19C2.44982 19.04 1.95982 18.58 1.78982 17.97C1.61982 17.36 1.78982 16.7 2.23982 16.25L6.13982 12.35C6.29982 12.19 6.51982 12.11 6.73982 12.13C6.95982 12.15 7.15982 12.27 7.28982 12.46C8.27982 13.92 9.82982 14.91 11.5598 15.16C12.1998 15.27 12.8298 15.27 13.4198 15.16C15.1698 14.91 16.7198 13.92 17.7098 12.46C17.8298 12.27 18.0398 12.15 18.2598 12.13C18.4798 12.11 18.6998 12.19 18.8598 12.35L22.7598 16.25C23.2098 16.7 23.3798 17.36 23.2098 17.97C23.0398 18.58 22.5398 19.05 21.9298 19.19L20.2798 19.58C20.1898 19.6 20.1198 19.67 20.0898 19.77L19.7398 21.24C19.5898 21.89 19.0898 22.39 18.4398 22.54C17.7898 22.7 17.1198 22.47 16.6998 21.96L12.4998 17.13L8.29982 21.97C7.95982 22.37 7.47982 22.59 6.96982 22.59ZM6.58982 14.03L3.29982 17.32C3.20982 17.41 3.21982 17.51 3.23982 17.57C3.24982 17.62 3.29982 17.72 3.41982 17.74L5.06982 18.13C5.71982 18.28 6.21982 18.78 6.36982 19.43L6.71982 20.9C6.74982 21.03 6.84982 21.07 6.90982 21.09C6.96982 21.1 7.06982 21.11 7.15982 21.01L10.9898 16.6C9.28982 16.27 7.72982 15.36 6.58982 14.03ZM14.0098 16.59L17.8398 20.99C17.9298 21.1 18.0398 21.1 18.0998 21.08C18.1598 21.07 18.2498 21.02 18.2898 20.89L18.6398 19.42C18.7898 18.77 19.2898 18.27 19.9398 18.12L21.5898 17.73C21.7098 17.7 21.7598 17.61 21.7698 17.56C21.7898 17.51 21.7998 17.4 21.7098 17.31L18.4198 14.02C17.2698 15.35 15.7198 16.26 14.0098 16.59Z" fill="white"/>
<path d="M14.3901 12.89C14.1301 12.89 13.8201 12.82 13.4501 12.6L12.5001 12.03L11.5501 12.59C10.6801 13.11 10.1101 12.81 9.90014 12.66C9.69014 12.51 9.24014 12.06 9.47014 11.07L9.71014 10.04L8.91014 9.29999C8.47014 8.85999 8.31014 8.33001 8.46014 7.85001C8.61014 7.37001 9.05014 7.02999 9.67014 6.92999L10.7401 6.75L11.2501 5.63C11.5401 5.06 11.9901 4.73999 12.5001 4.73999C13.0101 4.73999 13.4701 5.07001 13.7501 5.64001L14.3401 6.82001L15.3301 6.94C15.9401 7.04 16.3801 7.37999 16.5401 7.85999C16.6901 8.33999 16.5301 8.87 16.0901 9.31L15.2601 10.14L15.5201 11.07C15.7501 12.06 15.3001 12.51 15.0901 12.66C14.9801 12.75 14.7401 12.89 14.3901 12.89ZM10.1101 8.39001L10.8001 9.07999C11.1201 9.39999 11.2801 9.94 11.1801 10.38L10.9901 11.18L11.7901 10.71C12.2201 10.46 12.8001 10.46 13.2201 10.71L14.0201 11.18L13.8401 10.38C13.7401 9.93001 13.8901 9.39999 14.2101 9.07999L14.9001 8.39001L14.0301 8.23999C13.6101 8.16999 13.1901 7.86001 13.0001 7.48001L12.5001 6.5L12.0001 7.5C11.8201 7.87 11.4001 8.19001 10.9801 8.26001L10.1101 8.39001Z" fill="white"/>
</svg>
