<svg width="25" height="24" viewBox="0 0 25 24" fill="none" xmlns="http://www.w3.org/2000/svg">
<path d="M15.5 22.75H9.5C5.09 22.75 3.75 21.41 3.75 17V7C3.75 2.59 5.09 1.25 9.5 1.25H15.5C19.91 1.25 21.25 2.59 21.25 7V17C21.25 21.41 19.91 22.75 15.5 22.75ZM9.5 2.75C5.92 2.75 5.25 3.43 5.25 7V17C5.25 20.57 5.92 21.25 9.5 21.25H15.5C19.08 21.25 19.75 20.57 19.75 17V7C19.75 3.43 19.08 2.75 15.5 2.75H9.5Z" fill="#727272"/>
<path d="M14.5 6.25H10.5C10.09 6.25 9.75 5.91 9.75 5.5C9.75 5.09 10.09 4.75 10.5 4.75H14.5C14.91 4.75 15.25 5.09 15.25 5.5C15.25 5.91 14.91 6.25 14.5 6.25Z" fill="#727272"/>
<path d="M12.5 19.86C11.23 19.86 10.2 18.83 10.2 17.56C10.2 16.29 11.23 15.26 12.5 15.26C13.77 15.26 14.8 16.29 14.8 17.56C14.8 18.83 13.77 19.86 12.5 19.86ZM12.5 16.75C12.06 16.75 11.7 17.11 11.7 17.55C11.7 17.99 12.06 18.35 12.5 18.35C12.94 18.35 13.3 17.99 13.3 17.55C13.3 17.11 12.94 16.75 12.5 16.75Z" fill="#727272"/>
</svg>
